<?xml version="1.0" standalone="no"?>
<!DOCTYPE svg PUBLIC "-//W3C//DTD SVG 20010904//EN"
 "http://www.w3.org/TR/2001/REC-SVG-20010904/DTD/svg10.dtd">
<svg version="1.0" xmlns="http://www.w3.org/2000/svg"
 width="500.000000pt" height="500.000000pt" viewBox="0 0 500.000000 500.000000"
 preserveAspectRatio="xMidYMid meet">
<metadata>
Created by potrace 1.14, written by Peter Selinger 2001-2017
</metadata>
<g transform="translate(0.000000,500.000000) scale(0.100000,-0.100000)"
fill="#000000" stroke="none">
<path d="M2447 4898 c-4 -29 -8 -64 -11 -78 -2 -14 -7 -47 -11 -74 -3 -27 -12
-92 -20 -145 -8 -53 -17 -116 -20 -141 -3 -25 -7 -56 -10 -70 -3 -14 -7 -45
-10 -70 -3 -25 -7 -52 -9 -60 -3 -8 -7 -40 -11 -70 -3 -30 -7 -66 -10 -80 -2
-14 -7 -41 -9 -60 -3 -19 -12 -87 -21 -150 -9 -63 -18 -128 -20 -145 -2 -16
-7 -48 -10 -70 -11 -70 -14 -86 -45 -305 -17 -118 -32 -226 -34 -240 -3 -14
-7 -43 -11 -66 l-6 -41 -72 -17 c-40 -9 -102 -30 -139 -45 -76 -33 -68 -36
-128 54 -19 28 -36 52 -39 55 -3 3 -26 34 -51 70 -24 36 -48 70 -53 75 -4 6
-35 48 -67 95 -32 47 -63 90 -67 95 -8 10 -153 214 -203 286 -104 149 -354
498 -356 496 -1 -1 6 -36 17 -77 10 -41 21 -84 23 -95 2 -11 7 -27 10 -35 3
-8 7 -26 10 -40 2 -14 22 -92 44 -175 74 -278 153 -584 157 -602 2 -10 13 -53
25 -95 11 -43 23 -85 25 -95 2 -10 24 -97 49 -193 26 -96 54 -205 62 -242 l16
-66 -39 -84 c-22 -45 -45 -99 -53 -118 -7 -19 -17 -39 -21 -43 -6 -8 -154 65
-414 203 -38 20 -191 99 -340 175 -148 76 -303 156 -343 177 l-74 40 58 -79
c33 -43 61 -80 64 -83 3 -3 10 -13 15 -22 9 -15 118 -164 510 -693 389 -526
383 -517 380 -555 -1 -19 -3 -88 -4 -152 l-1 -116 -83 -28 c-45 -16 -84 -29
-87 -29 -10 -1 -366 -117 -395 -128 -16 -7 -33 -12 -37 -13 -5 -1 -9 -2 -10
-4 -2 -1 -10 -3 -18 -5 -8 -2 -34 -10 -58 -19 -23 -8 -46 -16 -50 -17 -16 -4
-220 -68 -242 -76 -8 -3 -19 -7 -25 -8 -33 -8 -141 -48 -148 -54 -8 -8 152
-81 174 -81 5 0 17 -4 27 -10 16 -9 514 -172 539 -176 11 -2 39 -10 163 -48
54 -17 93 -26 101 -23 3 1 13 -4 22 -12 10 -7 17 -11 17 -8 0 3 16 -1 35 -9
19 -8 36 -14 37 -13 2 1 23 -4 48 -11 25 -7 45 -11 45 -9 0 1 9 -3 21 -9 11
-6 32 -13 45 -16 115 -24 147 -41 231 -122 95 -92 184 -153 264 -183 53 -20
73 -21 679 -21 602 0 626 1 675 20 100 39 195 114 285 225 36 43 38 44 255
109 47 14 139 42 205 62 66 20 140 42 165 49 25 7 151 45 280 85 129 39 242
73 250 75 8 2 69 20 135 40 66 20 149 45 185 56 83 24 94 28 88 34 -3 4 -741
226 -798 240 -8 2 -107 32 -220 65 -113 34 -213 64 -222 67 -14 4 -18 17 -19
57 0 28 -2 96 -5 150 l-5 99 32 46 c27 37 345 469 818 1111 34 47 71 96 81
110 10 14 34 46 54 73 20 26 33 47 30 47 -3 0 -69 -33 -147 -74 -207 -107
-406 -210 -622 -321 -104 -54 -237 -122 -294 -152 -57 -29 -106 -51 -108 -49
-9 8 -95 201 -100 221 -2 11 14 92 37 180 65 251 80 309 84 326 3 9 18 67 35
130 56 213 72 274 77 294 8 40 14 63 54 215 23 85 43 164 46 175 2 11 28 112
58 225 30 113 53 206 51 208 -1 2 -51 -66 -111 -150 -59 -84 -112 -157 -116
-163 -14 -17 -659 -929 -667 -943 -5 -10 -21 -6 -67 15 -32 15 -95 39 -138 53
-67 23 -80 30 -82 51 -2 13 -8 51 -13 84 -6 33 -12 78 -15 100 -3 22 -12 90
-21 150 -8 61 -18 126 -20 145 -6 47 -43 306 -50 350 -7 50 -54 387 -61 435
-3 22 -10 69 -15 105 -6 36 -12 76 -14 90 -21 157 -27 199 -30 220 -2 14 -7
45 -10 70 -4 25 -9 61 -12 80 -3 19 -6 41 -6 48 0 6 -3 12 -7 12 -4 0 -10 -24
-13 -52z"/>
</g>
</svg>
