<svg width="1000" height="250" xmlns="http://www.w3.org/2000/svg" preserveAspectRatio="none">

    <path 
    d="m18.92912,-70.69287c-211.9073,0.56766 -10.69385,-51.73756 -13.50802,-0.48656c-2.81417,51.251 -34.33293,264.20216 -3.37702,307.99257c30.95593,43.79041 135.6432,-42.00635 189.1125,-45.25008c53.46932,-3.24373 95.1191,24.16581 131.70335,25.78767c36.58426,1.62187 54.87636,-20.19223 87.80221,-16.05647c32.92582,4.13576 56.56491,42.6551 109.75279,40.87104c53.18789,-1.78406 129.17062,-48.41274 209.37458,-51.57537c80.20395,-3.16264 210.78163,30.49112 271.84921,32.59954c61.06758,2.10843 46.71528,-24.81459 94.55623,-19.94898c47.84097,4.8656 162.37787,95.4469 192.48954,49.14259c30.11167,-46.30431 199.80639,-273.12244 -11.81952,-326.96843c-211.62589,-53.846 -1046.02853,3.32483 -1257.93586,3.89248c-211.9073,0.56766 -10.69385,-51.73756 -13.50802,-0.48656"
    fill="url(&quot;#linear-gradient&quot;)" >
</path>

 <defs>
    <linearGradient id="linear-gradient" gradientTransform="rotate(316, 0.5, 0.5)">
        <stop offset="0%" stop-color="#1e40af" />
  <stop offset="100%" stop-color="#0ea5e9" />
</linearGradient>
<radialGradient id="SvgjsRadialGradient1001">
    <stop stop-color="hsl(340, 45%, 50%)" offset="0"></stop>
    <stop stop-color="hsl(340, 45%, 80%)" offset="1"></stop>
</radialGradient>
 </defs>

</svg>