<svg xmlns="http://www.w3.org/2000/svg" viewBox="50 50 250 700"  preserveAspectRatio="none">
    <path
        d="M8.884953498840332,6.7944231033325195C-89.50355271498363,7.70905723174413,3.9197967648506165,-76.56794548034668,2.6131765842437744,6.010450839996338C1.3065564036369324,88.58884716033936,-13.327590306599935,431.7073082129161,1.0452324151992798,502.2648010253906C15.418055136998495,572.8222938378652,64.02432849009831,434.58188883463544,88.85011291503906,429.35540771484375C113.67589733997981,424.12892659505206,133.01387786865234,468.2926737467448,149.99993896484375,470.9059143066406C166.98600006103516,473.51915486653644,175.4790242513021,438.371088663737,190.7664794921875,445.03485107421875C206.0539347330729,451.6986134847005,217.02954610188803,513.7630564371744,241.72467041015625,510.88848876953125C266.4197947184245,508.013921101888,301.69854736328125,432.8832600911458,338.9372253417969,427.7874450683594C376.1759033203125,422.69163004557294,436.80308024088544,476.9163869222005,465.15673828125,480.3135986328125C493.51039632161456,483.7108103434245,486.8466288248698,440.33099365234375,509.0591735839844,448.17071533203125C531.271718343099,456.01043701171875,584.4511667887369,601.9599402546883,598.4320068359375,527.3519287109375C612.4128468831381,452.74391716718674,691.202056090037,87.28223033746083,592.9442138671875,0.5226460695266724C494.68637164433795,-86.23693819840749,107.27345971266429,5.879788974920909,8.884953498840332,6.7944231033325195C-89.50355271498363,7.70905723174413,3.9197967648506165,-76.56794548034668,2.6131765842437744,6.010450839996338"
        fill="url(&quot;#linear-gradient&quot;)">
    </path>
    <defs>
        <linearGradient id="linear-gradient" gradientTransform="rotate(316, 0.5, 0.5)">
            <stop offset="0%" stop-color="#1e40af" />
      <stop offset="100%" stop-color="#0ea5e9" />
    </linearGradient>
        <radialGradient id="SvgjsRadialGradient1001">
            <stop stop-color="hsl(340, 45%, 50%)" offset="0"></stop>
            <stop stop-color="hsl(340, 45%, 80%)" offset="1"></stop>
        </radialGradient>
    </defs>
</svg>
